# xmcd CD database file
#
# Track frame offsets:
#	150
#	19262
#	40816
#	62447
#	90395
#	108071
#	130453
#	151107
#	176312
#	201154
#
# Disc length: 3038 seconds
#
# Revision: 0
# Processed by: cddbd v1.5.1PL0 Copyright (c) Steve Scherf et al.
# Submitted via: CDex 1.51
#
DISCID=710bdc0a
DTITLE=Susanna Tamaro - Susanna Tamaro - Antworte mir CD3
DYEAR=2001
DGENRE=Lesung
TTITLE0=Antworte mir CD3
TTITLE1=Antworte mir CD3
TTITLE2=Antworte mir CD3
TTITLE3=Antworte mir CD3
TTITLE4=Antworte mir CD3
TTITLE5=Antworte mir CD3
TTITLE6=Antworte mir CD3
TTITLE7=Antworte mir CD3
TTITLE8=Antworte mir CD3
TTITLE9=Antworte mir CD3
EXTD=YEAR: 2001
EXTT0=
EXTT1=
EXTT2=
EXTT3=
EXTT4=
EXTT5=
EXTT6=
EXTT7=
EXTT8=
EXTT9=
PLAYORDER=
